<?xml version="1.0" encoding="UTF-8" standalone="no"?>
<!DOCTYPE svg PUBLIC "-//W3C//DTD SVG 1.1//EN"
 "http://www.w3.org/Graphics/SVG/1.1/DTD/svg11.dtd">
<!-- Generated by graphviz version 2.43.0 (0)
 -->
<!-- Title: %3 Pages: 1 -->
<svg width="2306pt" height="548pt"
 viewBox="0.00 0.00 2305.50 548.00" xmlns="http://www.w3.org/2000/svg" xmlns:xlink="http://www.w3.org/1999/xlink">
<g id="graph0" class="graph" transform="scale(1 1) rotate(0) translate(4 544)">
<title>%3</title>
<polygon fill="white" stroke="transparent" points="-4,4 -4,-544 2301.5,-544 2301.5,4 -4,4"/>
<!-- [root] aws_cloudfront_distribution.viewer&#45;dist -->
<g id="node1" class="node">
<title>[root] aws_cloudfront_distribution.viewer&#45;dist</title>
<polygon fill="none" stroke="black" points="1259,-396 960,-396 960,-360 1259,-360 1259,-396"/>
<text text-anchor="middle" x="1109.5" y="-374.3" font-family="Times,serif" font-size="14.00">aws_cloudfront_distribution.viewer&#45;dist</text>
</g>
<!-- [root] aws_cloudfront_origin_access_identity.viewer&#45;access -->
<g id="node3" class="node">
<title>[root] aws_cloudfront_origin_access_identity.viewer&#45;access</title>
<polygon fill="none" stroke="black" points="1876.5,-252 1486.5,-252 1486.5,-216 1876.5,-216 1876.5,-252"/>
<text text-anchor="middle" x="1681.5" y="-230.3" font-family="Times,serif" font-size="14.00">aws_cloudfront_origin_access_identity.viewer&#45;access</text>
</g>
<!-- [root] aws_cloudfront_distribution.viewer&#45;dist&#45;&gt;[root] aws_cloudfront_origin_access_identity.viewer&#45;access -->
<g id="edge1" class="edge">
<title>[root] aws_cloudfront_distribution.viewer&#45;dist&#45;&gt;[root] aws_cloudfront_origin_access_identity.viewer&#45;access</title>
<path fill="none" stroke="black" d="M1176.14,-360C1247.08,-341.94 1362.64,-312.67 1462.5,-288 1508.21,-276.71 1559.34,-264.32 1600.7,-254.36"/>
<polygon fill="black" stroke="black" points="1601.54,-257.76 1610.45,-252.01 1599.9,-250.95 1601.54,-257.76"/>
</g>
<!-- [root] aws_s3_bucket.viewer&#45;bucket -->
<g id="node13" class="node">
<title>[root] aws_s3_bucket.viewer&#45;bucket</title>
<polygon fill="none" stroke="black" points="1468,-252 1241,-252 1241,-216 1468,-216 1468,-252"/>
<text text-anchor="middle" x="1354.5" y="-230.3" font-family="Times,serif" font-size="14.00">aws_s3_bucket.viewer&#45;bucket</text>
</g>
<!-- [root] aws_cloudfront_distribution.viewer&#45;dist&#45;&gt;[root] aws_s3_bucket.viewer&#45;bucket -->
<g id="edge2" class="edge">
<title>[root] aws_cloudfront_distribution.viewer&#45;dist&#45;&gt;[root] aws_s3_bucket.viewer&#45;bucket</title>
<path fill="none" stroke="black" d="M1162.3,-359.99C1187.4,-350.91 1217.34,-338.58 1242.5,-324 1274.46,-305.47 1307.09,-278.43 1328.82,-259.02"/>
<polygon fill="black" stroke="black" points="1331.24,-261.55 1336.31,-252.25 1326.55,-256.36 1331.24,-261.55"/>
</g>
<!-- [root] data.aws_acm_certificate.wildcard&#45;cert -->
<g id="node20" class="node">
<title>[root] data.aws_acm_certificate.wildcard&#45;cert</title>
<polygon fill="none" stroke="black" points="1233,-324 938,-324 938,-288 1233,-288 1233,-324"/>
<text text-anchor="middle" x="1085.5" y="-302.3" font-family="Times,serif" font-size="14.00">data.aws_acm_certificate.wildcard&#45;cert</text>
</g>
<!-- [root] aws_cloudfront_distribution.viewer&#45;dist&#45;&gt;[root] data.aws_acm_certificate.wildcard&#45;cert -->
<g id="edge3" class="edge">
<title>[root] aws_cloudfront_distribution.viewer&#45;dist&#45;&gt;[root] data.aws_acm_certificate.wildcard&#45;cert</title>
<path fill="none" stroke="black" d="M1103.57,-359.7C1100.89,-351.9 1097.67,-342.51 1094.7,-333.83"/>
<polygon fill="black" stroke="black" points="1097.92,-332.43 1091.36,-324.1 1091.3,-334.7 1097.92,-332.43"/>
</g>
<!-- [root] aws_cloudfront_distribution.xsrt&#45;storage&#45;dist -->
<g id="node2" class="node">
<title>[root] aws_cloudfront_distribution.xsrt&#45;storage&#45;dist</title>
<polygon fill="none" stroke="black" points="1615.5,-396 1277.5,-396 1277.5,-360 1615.5,-360 1615.5,-396"/>
<text text-anchor="middle" x="1446.5" y="-374.3" font-family="Times,serif" font-size="14.00">aws_cloudfront_distribution.xsrt&#45;storage&#45;dist</text>
</g>
<!-- [root] aws_cloudfront_distribution.xsrt&#45;storage&#45;dist&#45;&gt;[root] aws_cloudfront_origin_access_identity.viewer&#45;access -->
<g id="edge4" class="edge">
<title>[root] aws_cloudfront_distribution.xsrt&#45;storage&#45;dist&#45;&gt;[root] aws_cloudfront_origin_access_identity.viewer&#45;access</title>
<path fill="none" stroke="black" d="M1451.03,-359.94C1457.25,-339.79 1470.4,-306.68 1493.5,-288 1511.5,-273.45 1533.26,-262.89 1555.5,-255.23"/>
<polygon fill="black" stroke="black" points="1556.63,-258.54 1565.06,-252.12 1554.46,-251.89 1556.63,-258.54"/>
</g>
<!-- [root] aws_cloudfront_distribution.xsrt&#45;storage&#45;dist&#45;&gt;[root] aws_s3_bucket.viewer&#45;bucket -->
<g id="edge5" class="edge">
<title>[root] aws_cloudfront_distribution.xsrt&#45;storage&#45;dist&#45;&gt;[root] aws_s3_bucket.viewer&#45;bucket</title>
<path fill="none" stroke="black" d="M1435.4,-359.87C1419.45,-335.24 1389.9,-289.64 1371.27,-260.88"/>
<polygon fill="black" stroke="black" points="1374.01,-258.68 1365.64,-252.19 1368.14,-262.48 1374.01,-258.68"/>
</g>
<!-- [root] aws_cloudfront_distribution.xsrt&#45;storage&#45;dist&#45;&gt;[root] data.aws_acm_certificate.wildcard&#45;cert -->
<g id="edge6" class="edge">
<title>[root] aws_cloudfront_distribution.xsrt&#45;storage&#45;dist&#45;&gt;[root] data.aws_acm_certificate.wildcard&#45;cert</title>
<path fill="none" stroke="black" d="M1358.65,-359.97C1305.7,-349.7 1238.16,-336.6 1183.48,-326"/>
<polygon fill="black" stroke="black" points="1183.91,-322.52 1173.43,-324.05 1182.58,-329.39 1183.91,-322.52"/>
</g>
<!-- [root] provider.aws -->
<g id="node24" class="node">
<title>[root] provider.aws</title>
<polygon fill="none" stroke="black" points="1263.5,-36 1164.46,-18 1263.5,0 1362.54,-18 1263.5,-36"/>
<text text-anchor="middle" x="1263.5" y="-14.3" font-family="Times,serif" font-size="14.00">provider.aws</text>
</g>
<!-- [root] aws_cloudfront_origin_access_identity.viewer&#45;access&#45;&gt;[root] provider.aws -->
<g id="edge7" class="edge">
<title>[root] aws_cloudfront_origin_access_identity.viewer&#45;access&#45;&gt;[root] provider.aws</title>
<path fill="none" stroke="black" d="M1648,-215.85C1569.72,-175.77 1375.51,-76.35 1297.12,-36.21"/>
<polygon fill="black" stroke="black" points="1298.64,-33.06 1288.15,-31.62 1295.45,-39.29 1298.64,-33.06"/>
</g>
<!-- [root] aws_egress_only_internet_gateway.main_eig -->
<g id="node4" class="node">
<title>[root] aws_egress_only_internet_gateway.main_eig</title>
<polygon fill="none" stroke="black" points="1112.5,-180 780.5,-180 780.5,-144 1112.5,-144 1112.5,-180"/>
<text text-anchor="middle" x="946.5" y="-158.3" font-family="Times,serif" font-size="14.00">aws_egress_only_internet_gateway.main_eig</text>
</g>
<!-- [root] aws_vpc.main&#45;vpc -->
<g id="node19" class="node">
<title>[root] aws_vpc.main&#45;vpc</title>
<polygon fill="none" stroke="black" points="619,-108 474,-108 474,-72 619,-72 619,-108"/>
<text text-anchor="middle" x="546.5" y="-86.3" font-family="Times,serif" font-size="14.00">aws_vpc.main&#45;vpc</text>
</g>
<!-- [root] aws_egress_only_internet_gateway.main_eig&#45;&gt;[root] aws_vpc.main&#45;vpc -->
<g id="edge8" class="edge">
<title>[root] aws_egress_only_internet_gateway.main_eig&#45;&gt;[root] aws_vpc.main&#45;vpc</title>
<path fill="none" stroke="black" d="M837.04,-143.99C778.03,-134.53 703.72,-122.18 629.35,-108.31"/>
<polygon fill="black" stroke="black" points="629.8,-104.84 619.33,-106.44 628.51,-111.72 629.8,-104.84"/>
</g>
<!-- [root] aws_eip.nat&#45;eip -->
<g id="node5" class="node">
<title>[root] aws_eip.nat&#45;eip</title>
<polygon fill="none" stroke="black" points="1258,-108 1131,-108 1131,-72 1258,-72 1258,-108"/>
<text text-anchor="middle" x="1194.5" y="-86.3" font-family="Times,serif" font-size="14.00">aws_eip.nat&#45;eip</text>
</g>
<!-- [root] aws_eip.nat&#45;eip&#45;&gt;[root] provider.aws -->
<g id="edge9" class="edge">
<title>[root] aws_eip.nat&#45;eip&#45;&gt;[root] provider.aws</title>
<path fill="none" stroke="black" d="M1211.56,-71.7C1220.72,-62.41 1232.1,-50.86 1241.87,-40.94"/>
<polygon fill="black" stroke="black" points="1244.44,-43.32 1248.97,-33.74 1239.46,-38.4 1244.44,-43.32"/>
</g>
<!-- [root] aws_internet_gateway.main_ig -->
<g id="node6" class="node">
<title>[root] aws_internet_gateway.main_ig</title>
<polygon fill="none" stroke="black" points="563,-180 330,-180 330,-144 563,-144 563,-180"/>
<text text-anchor="middle" x="446.5" y="-158.3" font-family="Times,serif" font-size="14.00">aws_internet_gateway.main_ig</text>
</g>
<!-- [root] aws_internet_gateway.main_ig&#45;&gt;[root] aws_vpc.main&#45;vpc -->
<g id="edge10" class="edge">
<title>[root] aws_internet_gateway.main_ig&#45;&gt;[root] aws_vpc.main&#45;vpc</title>
<path fill="none" stroke="black" d="M470.96,-143.88C483.8,-134.89 499.7,-123.76 513.59,-114.03"/>
<polygon fill="black" stroke="black" points="515.76,-116.79 521.94,-108.19 511.74,-111.06 515.76,-116.79"/>
</g>
<!-- [root] aws_nat_gateway.main&#45;nat -->
<g id="node7" class="node">
<title>[root] aws_nat_gateway.main&#45;nat</title>
<polygon fill="none" stroke="black" points="879.5,-252 673.5,-252 673.5,-216 879.5,-216 879.5,-252"/>
<text text-anchor="middle" x="776.5" y="-230.3" font-family="Times,serif" font-size="14.00">aws_nat_gateway.main&#45;nat</text>
</g>
<!-- [root] aws_nat_gateway.main&#45;nat&#45;&gt;[root] aws_eip.nat&#45;eip -->
<g id="edge11" class="edge">
<title>[root] aws_nat_gateway.main&#45;nat&#45;&gt;[root] aws_eip.nat&#45;eip</title>
<path fill="none" stroke="black" d="M879.75,-217.25C981.15,-201.76 1120.83,-180.38 1121.5,-180 1147.24,-165.32 1167.66,-137.79 1180.28,-117.21"/>
<polygon fill="black" stroke="black" points="1183.46,-118.71 1185.52,-108.32 1177.43,-115.16 1183.46,-118.71"/>
</g>
<!-- [root] aws_subnet.xsrt&#45;public -->
<g id="node18" class="node">
<title>[root] aws_subnet.xsrt&#45;public</title>
<polygon fill="none" stroke="black" points="762,-180 581,-180 581,-144 762,-144 762,-180"/>
<text text-anchor="middle" x="671.5" y="-158.3" font-family="Times,serif" font-size="14.00">aws_subnet.xsrt&#45;public</text>
</g>
<!-- [root] aws_nat_gateway.main&#45;nat&#45;&gt;[root] aws_subnet.xsrt&#45;public -->
<g id="edge12" class="edge">
<title>[root] aws_nat_gateway.main&#45;nat&#45;&gt;[root] aws_subnet.xsrt&#45;public</title>
<path fill="none" stroke="black" d="M750.81,-215.88C737.21,-206.81 720.33,-195.55 705.64,-185.76"/>
<polygon fill="black" stroke="black" points="707.55,-182.82 697.28,-180.19 703.66,-188.65 707.55,-182.82"/>
</g>
<!-- [root] aws_route_table.private_table -->
<g id="node8" class="node">
<title>[root] aws_route_table.private_table</title>
<polygon fill="none" stroke="black" points="891.5,-324 661.5,-324 661.5,-288 891.5,-288 891.5,-324"/>
<text text-anchor="middle" x="776.5" y="-302.3" font-family="Times,serif" font-size="14.00">aws_route_table.private_table</text>
</g>
<!-- [root] aws_route_table.private_table&#45;&gt;[root] aws_egress_only_internet_gateway.main_eig -->
<g id="edge13" class="edge">
<title>[root] aws_route_table.private_table&#45;&gt;[root] aws_egress_only_internet_gateway.main_eig</title>
<path fill="none" stroke="black" d="M709.94,-287.94C692.15,-280.02 674.97,-268.54 664.5,-252 655.94,-238.48 654.28,-228.31 664.5,-216 674.28,-204.22 739.7,-191.53 805.06,-181.52"/>
<polygon fill="black" stroke="black" points="805.76,-184.96 815.12,-180 804.71,-178.03 805.76,-184.96"/>
</g>
<!-- [root] aws_route_table.private_table&#45;&gt;[root] aws_nat_gateway.main&#45;nat -->
<g id="edge14" class="edge">
<title>[root] aws_route_table.private_table&#45;&gt;[root] aws_nat_gateway.main&#45;nat</title>
<path fill="none" stroke="black" d="M776.5,-287.7C776.5,-279.98 776.5,-270.71 776.5,-262.11"/>
<polygon fill="black" stroke="black" points="780,-262.1 776.5,-252.1 773,-262.1 780,-262.1"/>
</g>
<!-- [root] aws_route_table.public_table -->
<g id="node9" class="node">
<title>[root] aws_route_table.public_table</title>
<polygon fill="none" stroke="black" points="555,-324 332,-324 332,-288 555,-288 555,-324"/>
<text text-anchor="middle" x="443.5" y="-302.3" font-family="Times,serif" font-size="14.00">aws_route_table.public_table</text>
</g>
<!-- [root] aws_route_table.public_table&#45;&gt;[root] aws_internet_gateway.main_ig -->
<g id="edge15" class="edge">
<title>[root] aws_route_table.public_table&#45;&gt;[root] aws_internet_gateway.main_ig</title>
<path fill="none" stroke="black" d="M443.86,-287.87C444.37,-263.67 445.31,-219.21 445.92,-190.39"/>
<polygon fill="black" stroke="black" points="449.42,-190.26 446.14,-180.19 442.43,-190.11 449.42,-190.26"/>
</g>
<!-- [root] aws_route_table_association.private_routes -->
<g id="node10" class="node">
<title>[root] aws_route_table_association.private_routes</title>
<polygon fill="none" stroke="black" points="941.5,-396 615.5,-396 615.5,-360 941.5,-360 941.5,-396"/>
<text text-anchor="middle" x="778.5" y="-374.3" font-family="Times,serif" font-size="14.00">aws_route_table_association.private_routes</text>
</g>
<!-- [root] aws_route_table_association.private_routes&#45;&gt;[root] aws_route_table.private_table -->
<g id="edge16" class="edge">
<title>[root] aws_route_table_association.private_routes&#45;&gt;[root] aws_route_table.private_table</title>
<path fill="none" stroke="black" d="M778.01,-359.7C777.79,-351.98 777.52,-342.71 777.27,-334.11"/>
<polygon fill="black" stroke="black" points="780.77,-334 776.99,-324.1 773.78,-334.2 780.77,-334"/>
</g>
<!-- [root] aws_subnet.xsrt&#45;private -->
<g id="node17" class="node">
<title>[root] aws_subnet.xsrt&#45;private</title>
<polygon fill="none" stroke="black" points="273.5,-180 85.5,-180 85.5,-144 273.5,-144 273.5,-180"/>
<text text-anchor="middle" x="179.5" y="-158.3" font-family="Times,serif" font-size="14.00">aws_subnet.xsrt&#45;private</text>
</g>
<!-- [root] aws_route_table_association.private_routes&#45;&gt;[root] aws_subnet.xsrt&#45;private -->
<g id="edge17" class="edge">
<title>[root] aws_route_table_association.private_routes&#45;&gt;[root] aws_subnet.xsrt&#45;private</title>
<path fill="none" stroke="black" d="M737.89,-359.99C680.47,-335.97 580.6,-294.31 563.5,-288 453.43,-247.37 323.18,-206.45 246.16,-182.97"/>
<polygon fill="black" stroke="black" points="247.17,-179.62 236.58,-180.06 245.13,-186.32 247.17,-179.62"/>
</g>
<!-- [root] aws_route_table_association.public_routes -->
<g id="node11" class="node">
<title>[root] aws_route_table_association.public_routes</title>
<polygon fill="none" stroke="black" points="559,-396 240,-396 240,-360 559,-360 559,-396"/>
<text text-anchor="middle" x="399.5" y="-374.3" font-family="Times,serif" font-size="14.00">aws_route_table_association.public_routes</text>
</g>
<!-- [root] aws_route_table_association.public_routes&#45;&gt;[root] aws_route_table.public_table -->
<g id="edge18" class="edge">
<title>[root] aws_route_table_association.public_routes&#45;&gt;[root] aws_route_table.public_table</title>
<path fill="none" stroke="black" d="M410.38,-359.7C415.49,-351.56 421.7,-341.69 427.34,-332.7"/>
<polygon fill="black" stroke="black" points="430.39,-334.43 432.75,-324.1 424.46,-330.71 430.39,-334.43"/>
</g>
<!-- [root] aws_route_table_association.public_routes&#45;&gt;[root] aws_subnet.xsrt&#45;public -->
<g id="edge19" class="edge">
<title>[root] aws_route_table_association.public_routes&#45;&gt;[root] aws_subnet.xsrt&#45;public</title>
<path fill="none" stroke="black" d="M488.55,-359.9C514.46,-351.96 541.64,-340.49 563.5,-324 611.03,-288.15 644.43,-224.99 660.55,-189.36"/>
<polygon fill="black" stroke="black" points="663.8,-190.65 664.63,-180.09 657.4,-187.83 663.8,-190.65"/>
</g>
<!-- [root] aws_s3_bucket.storage&#45;bucket -->
<g id="node12" class="node">
<title>[root] aws_s3_bucket.storage&#45;bucket</title>
<polygon fill="none" stroke="black" points="2127,-252 1894,-252 1894,-216 2127,-216 2127,-252"/>
<text text-anchor="middle" x="2010.5" y="-230.3" font-family="Times,serif" font-size="14.00">aws_s3_bucket.storage&#45;bucket</text>
</g>
<!-- [root] aws_s3_bucket.storage&#45;bucket&#45;&gt;[root] provider.aws -->
<g id="edge20" class="edge">
<title>[root] aws_s3_bucket.storage&#45;bucket&#45;&gt;[root] provider.aws</title>
<path fill="none" stroke="black" d="M1950.95,-215.94C1806.43,-174.54 1439.51,-69.42 1309.8,-32.26"/>
<polygon fill="black" stroke="black" points="1310.73,-28.89 1300.15,-29.5 1308.8,-35.62 1310.73,-28.89"/>
</g>
<!-- [root] var.env -->
<g id="node27" class="node">
<title>[root] var.env</title>
<polygon fill="none" stroke="black" points="1418.5,-180 1356.5,-180 1356.5,-144 1424.5,-144 1424.5,-174 1418.5,-180"/>
<polyline fill="none" stroke="black" points="1418.5,-180 1418.5,-174 "/>
<polyline fill="none" stroke="black" points="1424.5,-174 1418.5,-174 "/>
<text text-anchor="middle" x="1390.5" y="-158.3" font-family="Times,serif" font-size="14.00">var.env</text>
</g>
<!-- [root] aws_s3_bucket.storage&#45;bucket&#45;&gt;[root] var.env -->
<g id="edge21" class="edge">
<title>[root] aws_s3_bucket.storage&#45;bucket&#45;&gt;[root] var.env</title>
<path fill="none" stroke="black" d="M1893.74,-217.01C1890.97,-216.67 1888.22,-216.33 1885.5,-216 1719.37,-195.81 1521.37,-175.84 1434.75,-167.31"/>
<polygon fill="black" stroke="black" points="1435.04,-163.82 1424.75,-166.33 1434.35,-170.79 1435.04,-163.82"/>
</g>
<!-- [root] aws_s3_bucket.viewer&#45;bucket&#45;&gt;[root] provider.aws -->
<g id="edge22" class="edge">
<title>[root] aws_s3_bucket.viewer&#45;bucket&#45;&gt;[root] provider.aws</title>
<path fill="none" stroke="black" d="M1347.21,-215.85C1331.24,-178.31 1293.13,-88.69 1274.35,-44.51"/>
<polygon fill="black" stroke="black" points="1277.46,-42.89 1270.33,-35.06 1271.02,-45.63 1277.46,-42.89"/>
</g>
<!-- [root] aws_s3_bucket.viewer&#45;bucket&#45;&gt;[root] var.env -->
<g id="edge23" class="edge">
<title>[root] aws_s3_bucket.viewer&#45;bucket&#45;&gt;[root] var.env</title>
<path fill="none" stroke="black" d="M1363.4,-215.7C1367.5,-207.73 1372.45,-198.1 1376.99,-189.26"/>
<polygon fill="black" stroke="black" points="1380.24,-190.6 1381.7,-180.1 1374.02,-187.4 1380.24,-190.6"/>
</g>
<!-- [root] aws_s3_bucket_policy.storage&#45;bucket&#45;policy -->
<g id="node14" class="node">
<title>[root] aws_s3_bucket_policy.storage&#45;bucket&#45;policy</title>
<polygon fill="none" stroke="black" points="2297.5,-396 1971.5,-396 1971.5,-360 2297.5,-360 2297.5,-396"/>
<text text-anchor="middle" x="2134.5" y="-374.3" font-family="Times,serif" font-size="14.00">aws_s3_bucket_policy.storage&#45;bucket&#45;policy</text>
</g>
<!-- [root] data.aws_iam_policy_document.storage_policy -->
<g id="node22" class="node">
<title>[root] data.aws_iam_policy_document.storage_policy</title>
<polygon fill="none" stroke="black" points="2208,-324 1861,-324 1861,-288 2208,-288 2208,-324"/>
<text text-anchor="middle" x="2034.5" y="-302.3" font-family="Times,serif" font-size="14.00">data.aws_iam_policy_document.storage_policy</text>
</g>
<!-- [root] aws_s3_bucket_policy.storage&#45;bucket&#45;policy&#45;&gt;[root] data.aws_iam_policy_document.storage_policy -->
<g id="edge24" class="edge">
<title>[root] aws_s3_bucket_policy.storage&#45;bucket&#45;policy&#45;&gt;[root] data.aws_iam_policy_document.storage_policy</title>
<path fill="none" stroke="black" d="M2110.04,-359.88C2097.2,-350.89 2081.3,-339.76 2067.41,-330.03"/>
<polygon fill="black" stroke="black" points="2069.26,-327.06 2059.06,-324.19 2065.24,-332.79 2069.26,-327.06"/>
</g>
<!-- [root] aws_s3_bucket_policy.viewer&#45;bucket&#45;policy -->
<g id="node15" class="node">
<title>[root] aws_s3_bucket_policy.viewer&#45;bucket&#45;policy</title>
<polygon fill="none" stroke="black" points="1953.5,-396 1633.5,-396 1633.5,-360 1953.5,-360 1953.5,-396"/>
<text text-anchor="middle" x="1793.5" y="-374.3" font-family="Times,serif" font-size="14.00">aws_s3_bucket_policy.viewer&#45;bucket&#45;policy</text>
</g>
<!-- [root] data.aws_iam_policy_document.viewer_policy -->
<g id="node23" class="node">
<title>[root] data.aws_iam_policy_document.viewer_policy</title>
<polygon fill="none" stroke="black" points="1843,-324 1502,-324 1502,-288 1843,-288 1843,-324"/>
<text text-anchor="middle" x="1672.5" y="-302.3" font-family="Times,serif" font-size="14.00">data.aws_iam_policy_document.viewer_policy</text>
</g>
<!-- [root] aws_s3_bucket_policy.viewer&#45;bucket&#45;policy&#45;&gt;[root] data.aws_iam_policy_document.viewer_policy -->
<g id="edge25" class="edge">
<title>[root] aws_s3_bucket_policy.viewer&#45;bucket&#45;policy&#45;&gt;[root] data.aws_iam_policy_document.viewer_policy</title>
<path fill="none" stroke="black" d="M1763.9,-359.88C1747.93,-350.64 1728.04,-339.13 1710.89,-329.21"/>
<polygon fill="black" stroke="black" points="1712.62,-326.17 1702.21,-324.19 1709.12,-332.23 1712.62,-326.17"/>
</g>
<!-- [root] aws_subnet.xsrt&#45;db -->
<g id="node16" class="node">
<title>[root] aws_subnet.xsrt&#45;db</title>
<polygon fill="none" stroke="black" points="222,-396 67,-396 67,-360 222,-360 222,-396"/>
<text text-anchor="middle" x="144.5" y="-374.3" font-family="Times,serif" font-size="14.00">aws_subnet.xsrt&#45;db</text>
</g>
<!-- [root] aws_subnet.xsrt&#45;db&#45;&gt;[root] aws_vpc.main&#45;vpc -->
<g id="edge26" class="edge">
<title>[root] aws_subnet.xsrt&#45;db&#45;&gt;[root] aws_vpc.main&#45;vpc</title>
<path fill="none" stroke="black" d="M174.23,-359.96C188.77,-350.63 205.82,-338.1 218.5,-324 279.98,-255.63 246.9,-199.12 320.5,-144 326.5,-139.51 401.87,-122.33 463.95,-108.74"/>
<polygon fill="black" stroke="black" points="464.76,-112.14 473.78,-106.59 463.26,-105.3 464.76,-112.14"/>
</g>
<!-- [root] data.aws_availability_zones.available -->
<g id="node21" class="node">
<title>[root] data.aws_availability_zones.available</title>
<polygon fill="none" stroke="black" points="281,-108 0,-108 0,-72 281,-72 281,-108"/>
<text text-anchor="middle" x="140.5" y="-86.3" font-family="Times,serif" font-size="14.00">data.aws_availability_zones.available</text>
</g>
<!-- [root] aws_subnet.xsrt&#45;db&#45;&gt;[root] data.aws_availability_zones.available -->
<g id="edge27" class="edge">
<title>[root] aws_subnet.xsrt&#45;db&#45;&gt;[root] data.aws_availability_zones.available</title>
<path fill="none" stroke="black" d="M111.14,-359.86C97.79,-351.09 83.86,-339.06 76.5,-324 41.39,-252.12 42.46,-216.39 76.5,-144 82.02,-132.26 91.57,-122.22 101.62,-114.15"/>
<polygon fill="black" stroke="black" points="103.81,-116.88 109.73,-108.09 99.62,-111.27 103.81,-116.88"/>
</g>
<!-- [root] var.db_subnets -->
<g id="node26" class="node">
<title>[root] var.db_subnets</title>
<polygon fill="none" stroke="black" points="203.5,-324 85.5,-324 85.5,-288 209.5,-288 209.5,-318 203.5,-324"/>
<polyline fill="none" stroke="black" points="203.5,-324 203.5,-318 "/>
<polyline fill="none" stroke="black" points="209.5,-318 203.5,-318 "/>
<text text-anchor="middle" x="147.5" y="-302.3" font-family="Times,serif" font-size="14.00">var.db_subnets</text>
</g>
<!-- [root] aws_subnet.xsrt&#45;db&#45;&gt;[root] var.db_subnets -->
<g id="edge28" class="edge">
<title>[root] aws_subnet.xsrt&#45;db&#45;&gt;[root] var.db_subnets</title>
<path fill="none" stroke="black" d="M145.24,-359.7C145.57,-351.98 145.97,-342.71 146.34,-334.11"/>
<polygon fill="black" stroke="black" points="149.84,-334.25 146.77,-324.1 142.84,-333.95 149.84,-334.25"/>
</g>
<!-- [root] aws_subnet.xsrt&#45;private&#45;&gt;[root] aws_vpc.main&#45;vpc -->
<g id="edge29" class="edge">
<title>[root] aws_subnet.xsrt&#45;private&#45;&gt;[root] aws_vpc.main&#45;vpc</title>
<path fill="none" stroke="black" d="M273.62,-144C326.6,-134.31 394.23,-121.74 463.42,-108.19"/>
<polygon fill="black" stroke="black" points="464.5,-111.55 473.64,-106.19 463.15,-104.68 464.5,-111.55"/>
</g>
<!-- [root] aws_subnet.xsrt&#45;private&#45;&gt;[root] data.aws_availability_zones.available -->
<g id="edge30" class="edge">
<title>[root] aws_subnet.xsrt&#45;private&#45;&gt;[root] data.aws_availability_zones.available</title>
<path fill="none" stroke="black" d="M169.86,-143.7C165.37,-135.64 159.94,-125.89 154.98,-116.98"/>
<polygon fill="black" stroke="black" points="157.95,-115.14 150.03,-108.1 151.84,-118.54 157.95,-115.14"/>
</g>
<!-- [root] var.private_subnets -->
<g id="node28" class="node">
<title>[root] var.private_subnets</title>
<polygon fill="none" stroke="black" points="450,-108 299,-108 299,-72 456,-72 456,-102 450,-108"/>
<polyline fill="none" stroke="black" points="450,-108 450,-102 "/>
<polyline fill="none" stroke="black" points="456,-102 450,-102 "/>
<text text-anchor="middle" x="377.5" y="-86.3" font-family="Times,serif" font-size="14.00">var.private_subnets</text>
</g>
<!-- [root] aws_subnet.xsrt&#45;private&#45;&gt;[root] var.private_subnets -->
<g id="edge31" class="edge">
<title>[root] aws_subnet.xsrt&#45;private&#45;&gt;[root] var.private_subnets</title>
<path fill="none" stroke="black" d="M227.68,-143.97C255.35,-134.19 290.28,-121.84 319.45,-111.52"/>
<polygon fill="black" stroke="black" points="320.84,-114.74 329.1,-108.11 318.51,-108.14 320.84,-114.74"/>
</g>
<!-- [root] aws_subnet.xsrt&#45;public&#45;&gt;[root] aws_vpc.main&#45;vpc -->
<g id="edge32" class="edge">
<title>[root] aws_subnet.xsrt&#45;public&#45;&gt;[root] aws_vpc.main&#45;vpc</title>
<path fill="none" stroke="black" d="M640.92,-143.88C624.43,-134.64 603.88,-123.13 586.16,-113.21"/>
<polygon fill="black" stroke="black" points="587.63,-110.02 577.2,-108.19 584.21,-116.13 587.63,-110.02"/>
</g>
<!-- [root] aws_subnet.xsrt&#45;public&#45;&gt;[root] data.aws_availability_zones.available -->
<g id="edge33" class="edge">
<title>[root] aws_subnet.xsrt&#45;public&#45;&gt;[root] data.aws_availability_zones.available</title>
<path fill="none" stroke="black" d="M580.78,-145.39C577.65,-144.91 574.55,-144.45 571.5,-144 518.89,-136.3 393.41,-120.99 291.33,-108.8"/>
<polygon fill="black" stroke="black" points="291.56,-105.3 281.21,-107.59 290.73,-112.26 291.56,-105.3"/>
</g>
<!-- [root] var.public_subnets -->
<g id="node29" class="node">
<title>[root] var.public_subnets</title>
<polygon fill="none" stroke="black" points="780,-108 637,-108 637,-72 786,-72 786,-102 780,-108"/>
<polyline fill="none" stroke="black" points="780,-108 780,-102 "/>
<polyline fill="none" stroke="black" points="786,-102 780,-102 "/>
<text text-anchor="middle" x="711.5" y="-86.3" font-family="Times,serif" font-size="14.00">var.public_subnets</text>
</g>
<!-- [root] aws_subnet.xsrt&#45;public&#45;&gt;[root] var.public_subnets -->
<g id="edge34" class="edge">
<title>[root] aws_subnet.xsrt&#45;public&#45;&gt;[root] var.public_subnets</title>
<path fill="none" stroke="black" d="M681.39,-143.7C685.99,-135.64 691.56,-125.89 696.65,-116.98"/>
<polygon fill="black" stroke="black" points="699.8,-118.52 701.73,-108.1 693.73,-115.05 699.8,-118.52"/>
</g>
<!-- [root] aws_vpc.main&#45;vpc&#45;&gt;[root] provider.aws -->
<g id="edge35" class="edge">
<title>[root] aws_vpc.main&#45;vpc&#45;&gt;[root] provider.aws</title>
<path fill="none" stroke="black" d="M619.28,-73.28C622.05,-72.82 624.8,-72.39 627.5,-72 823.18,-43.42 1055.16,-28.93 1177.7,-22.78"/>
<polygon fill="black" stroke="black" points="1177.96,-26.27 1187.77,-22.28 1177.61,-19.28 1177.96,-26.27"/>
</g>
<!-- [root] provider.aws.us&#45;east&#45;1 -->
<g id="node25" class="node">
<title>[root] provider.aws.us&#45;east&#45;1</title>
<polygon fill="none" stroke="black" points="1060.5,-252 897.62,-234 1060.5,-216 1223.38,-234 1060.5,-252"/>
<text text-anchor="middle" x="1060.5" y="-230.3" font-family="Times,serif" font-size="14.00">provider.aws.us&#45;east&#45;1</text>
</g>
<!-- [root] data.aws_acm_certificate.wildcard&#45;cert&#45;&gt;[root] provider.aws.us&#45;east&#45;1 -->
<g id="edge36" class="edge">
<title>[root] data.aws_acm_certificate.wildcard&#45;cert&#45;&gt;[root] provider.aws.us&#45;east&#45;1</title>
<path fill="none" stroke="black" d="M1079.32,-287.7C1076.46,-279.7 1073.01,-270.02 1069.84,-261.15"/>
<polygon fill="black" stroke="black" points="1073.1,-259.86 1066.44,-251.62 1066.5,-262.22 1073.1,-259.86"/>
</g>
<!-- [root] data.aws_availability_zones.available&#45;&gt;[root] provider.aws -->
<g id="edge37" class="edge">
<title>[root] data.aws_availability_zones.available&#45;&gt;[root] provider.aws</title>
<path fill="none" stroke="black" d="M281.25,-72.72C284.02,-72.47 286.78,-72.23 289.5,-72 615.08,-44.59 1003.13,-28.39 1174.57,-22.07"/>
<polygon fill="black" stroke="black" points="1174.93,-25.56 1184.8,-21.7 1174.68,-18.57 1174.93,-25.56"/>
</g>
<!-- [root] data.aws_iam_policy_document.storage_policy&#45;&gt;[root] aws_cloudfront_origin_access_identity.viewer&#45;access -->
<g id="edge38" class="edge">
<title>[root] data.aws_iam_policy_document.storage_policy&#45;&gt;[root] aws_cloudfront_origin_access_identity.viewer&#45;access</title>
<path fill="none" stroke="black" d="M1948.6,-287.97C1896.82,-277.7 1830.77,-264.6 1777.31,-254"/>
<polygon fill="black" stroke="black" points="1777.97,-250.56 1767.48,-252.05 1776.61,-257.43 1777.97,-250.56"/>
</g>
<!-- [root] data.aws_iam_policy_document.storage_policy&#45;&gt;[root] aws_s3_bucket.storage&#45;bucket -->
<g id="edge39" class="edge">
<title>[root] data.aws_iam_policy_document.storage_policy&#45;&gt;[root] aws_s3_bucket.storage&#45;bucket</title>
<path fill="none" stroke="black" d="M2028.57,-287.7C2025.89,-279.9 2022.67,-270.51 2019.7,-261.83"/>
<polygon fill="black" stroke="black" points="2022.92,-260.43 2016.36,-252.1 2016.3,-262.7 2022.92,-260.43"/>
</g>
<!-- [root] data.aws_iam_policy_document.viewer_policy&#45;&gt;[root] aws_cloudfront_origin_access_identity.viewer&#45;access -->
<g id="edge40" class="edge">
<title>[root] data.aws_iam_policy_document.viewer_policy&#45;&gt;[root] aws_cloudfront_origin_access_identity.viewer&#45;access</title>
<path fill="none" stroke="black" d="M1674.72,-287.7C1675.72,-279.98 1676.91,-270.71 1678.01,-262.11"/>
<polygon fill="black" stroke="black" points="1681.5,-262.47 1679.3,-252.1 1674.55,-261.58 1681.5,-262.47"/>
</g>
<!-- [root] data.aws_iam_policy_document.viewer_policy&#45;&gt;[root] aws_s3_bucket.viewer&#45;bucket -->
<g id="edge41" class="edge">
<title>[root] data.aws_iam_policy_document.viewer_policy&#45;&gt;[root] aws_s3_bucket.viewer&#45;bucket</title>
<path fill="none" stroke="black" d="M1595.12,-287.97C1548.86,-277.78 1489.96,-264.82 1442.01,-254.26"/>
<polygon fill="black" stroke="black" points="1442.47,-250.78 1431.96,-252.05 1440.97,-257.62 1442.47,-250.78"/>
</g>
<!-- [root] meta.count&#45;boundary (EachMode fixup) -->
<g id="node30" class="node">
<title>[root] meta.count&#45;boundary (EachMode fixup)</title>
<ellipse fill="none" stroke="black" cx="1288.5" cy="-450" rx="223.66" ry="18"/>
<text text-anchor="middle" x="1288.5" y="-446.3" font-family="Times,serif" font-size="14.00">[root] meta.count&#45;boundary (EachMode fixup)</text>
</g>
<!-- [root] meta.count&#45;boundary (EachMode fixup)&#45;&gt;[root] aws_cloudfront_distribution.viewer&#45;dist -->
<g id="edge42" class="edge">
<title>[root] meta.count&#45;boundary (EachMode fixup)&#45;&gt;[root] aws_cloudfront_distribution.viewer&#45;dist</title>
<path fill="none" stroke="black" d="M1245.63,-432.23C1220.75,-422.51 1189.22,-410.17 1162.76,-399.83"/>
<polygon fill="black" stroke="black" points="1163.86,-396.5 1153.27,-396.12 1161.31,-403.02 1163.86,-396.5"/>
</g>
<!-- [root] meta.count&#45;boundary (EachMode fixup)&#45;&gt;[root] aws_cloudfront_distribution.xsrt&#45;storage&#45;dist -->
<g id="edge43" class="edge">
<title>[root] meta.count&#45;boundary (EachMode fixup)&#45;&gt;[root] aws_cloudfront_distribution.xsrt&#45;storage&#45;dist</title>
<path fill="none" stroke="black" d="M1326.34,-432.23C1348.01,-422.63 1375.4,-410.5 1398.56,-400.24"/>
<polygon fill="black" stroke="black" points="1400.14,-403.37 1407.87,-396.12 1397.31,-396.97 1400.14,-403.37"/>
</g>
<!-- [root] meta.count&#45;boundary (EachMode fixup)&#45;&gt;[root] aws_route_table_association.private_routes -->
<g id="edge44" class="edge">
<title>[root] meta.count&#45;boundary (EachMode fixup)&#45;&gt;[root] aws_route_table_association.private_routes</title>
<path fill="none" stroke="black" d="M1180.65,-434.2C1102.56,-423.48 996.48,-408.92 912.88,-397.44"/>
<polygon fill="black" stroke="black" points="913.18,-393.95 902.8,-396.06 912.23,-400.89 913.18,-393.95"/>
</g>
<!-- [root] meta.count&#45;boundary (EachMode fixup)&#45;&gt;[root] aws_route_table_association.public_routes -->
<g id="edge45" class="edge">
<title>[root] meta.count&#45;boundary (EachMode fixup)&#45;&gt;[root] aws_route_table_association.public_routes</title>
<path fill="none" stroke="black" d="M1132.4,-437.06C994.15,-426.45 786.89,-410.42 606.5,-396 594.38,-395.03 581.85,-394.02 569.25,-393"/>
<polygon fill="black" stroke="black" points="569.37,-389.5 559.12,-392.18 568.81,-396.48 569.37,-389.5"/>
</g>
<!-- [root] meta.count&#45;boundary (EachMode fixup)&#45;&gt;[root] aws_s3_bucket_policy.storage&#45;bucket&#45;policy -->
<g id="edge46" class="edge">
<title>[root] meta.count&#45;boundary (EachMode fixup)&#45;&gt;[root] aws_s3_bucket_policy.storage&#45;bucket&#45;policy</title>
<path fill="none" stroke="black" d="M1447.91,-437.37C1582.06,-427.37 1779.26,-412.17 1961.07,-396.12"/>
<polygon fill="black" stroke="black" points="1961.44,-399.6 1971.09,-395.23 1960.82,-392.63 1961.44,-399.6"/>
</g>
<!-- [root] meta.count&#45;boundary (EachMode fixup)&#45;&gt;[root] aws_s3_bucket_policy.viewer&#45;bucket&#45;policy -->
<g id="edge47" class="edge">
<title>[root] meta.count&#45;boundary (EachMode fixup)&#45;&gt;[root] aws_s3_bucket_policy.viewer&#45;bucket&#45;policy</title>
<path fill="none" stroke="black" d="M1395.6,-434.15C1472.94,-423.43 1577.9,-408.89 1660.6,-397.42"/>
<polygon fill="black" stroke="black" points="1661.14,-400.88 1670.57,-396.04 1660.18,-393.95 1661.14,-400.88"/>
</g>
<!-- [root] meta.count&#45;boundary (EachMode fixup)&#45;&gt;[root] aws_subnet.xsrt&#45;db -->
<g id="edge48" class="edge">
<title>[root] meta.count&#45;boundary (EachMode fixup)&#45;&gt;[root] aws_subnet.xsrt&#45;db</title>
<path fill="none" stroke="black" d="M1133.13,-437.03C1107.21,-435.21 1080.6,-433.46 1055.5,-432 692.42,-410.84 596.63,-439.19 232.26,-396.11"/>
<polygon fill="black" stroke="black" points="232.58,-392.62 222.23,-394.91 231.75,-399.57 232.58,-392.62"/>
</g>
<!-- [root] provider.aws (close) -->
<g id="node31" class="node">
<title>[root] provider.aws (close)</title>
<ellipse fill="none" stroke="black" cx="914.5" cy="-450" rx="131.88" ry="18"/>
<text text-anchor="middle" x="914.5" y="-446.3" font-family="Times,serif" font-size="14.00">[root] provider.aws (close)</text>
</g>
<!-- [root] provider.aws (close)&#45;&gt;[root] aws_cloudfront_distribution.viewer&#45;dist -->
<g id="edge49" class="edge">
<title>[root] provider.aws (close)&#45;&gt;[root] aws_cloudfront_distribution.viewer&#45;dist</title>
<path fill="none" stroke="black" d="M959.24,-432.94C986.94,-423 1022.77,-410.14 1052.49,-399.47"/>
<polygon fill="black" stroke="black" points="1053.68,-402.76 1061.91,-396.08 1051.31,-396.17 1053.68,-402.76"/>
</g>
<!-- [root] provider.aws (close)&#45;&gt;[root] aws_cloudfront_distribution.xsrt&#45;storage&#45;dist -->
<g id="edge50" class="edge">
<title>[root] provider.aws (close)&#45;&gt;[root] aws_cloudfront_distribution.xsrt&#45;storage&#45;dist</title>
<path fill="none" stroke="black" d="M1005.95,-436.97C1088.8,-426.07 1212.1,-409.84 1307.21,-397.33"/>
<polygon fill="black" stroke="black" points="1307.74,-400.79 1317.19,-396.01 1306.82,-393.85 1307.74,-400.79"/>
</g>
<!-- [root] provider.aws (close)&#45;&gt;[root] aws_route_table_association.private_routes -->
<g id="edge51" class="edge">
<title>[root] provider.aws (close)&#45;&gt;[root] aws_route_table_association.private_routes</title>
<path fill="none" stroke="black" d="M882.27,-432.41C863.96,-422.99 840.82,-411.07 821.03,-400.89"/>
<polygon fill="black" stroke="black" points="822.41,-397.67 811.92,-396.2 819.21,-403.89 822.41,-397.67"/>
</g>
<!-- [root] provider.aws (close)&#45;&gt;[root] aws_route_table_association.public_routes -->
<g id="edge52" class="edge">
<title>[root] provider.aws (close)&#45;&gt;[root] aws_route_table_association.public_routes</title>
<path fill="none" stroke="black" d="M824.5,-436.77C744.46,-425.89 626.28,-409.82 534.85,-397.4"/>
<polygon fill="black" stroke="black" points="535.06,-393.89 524.68,-396.01 534.12,-400.83 535.06,-393.89"/>
</g>
<!-- [root] provider.aws (close)&#45;&gt;[root] aws_s3_bucket_policy.storage&#45;bucket&#45;policy -->
<g id="edge53" class="edge">
<title>[root] provider.aws (close)&#45;&gt;[root] aws_s3_bucket_policy.storage&#45;bucket&#45;policy</title>
<path fill="none" stroke="black" d="M1005.41,-436.95C1022.05,-435.06 1039.28,-433.3 1055.5,-432 1454.31,-400.1 1558.31,-423.46 1960.93,-396.08"/>
<polygon fill="black" stroke="black" points="1961.37,-399.56 1971.1,-395.38 1960.89,-392.58 1961.37,-399.56"/>
</g>
<!-- [root] provider.aws (close)&#45;&gt;[root] aws_s3_bucket_policy.viewer&#45;bucket&#45;policy -->
<g id="edge54" class="edge">
<title>[root] provider.aws (close)&#45;&gt;[root] aws_s3_bucket_policy.viewer&#45;bucket&#45;policy</title>
<path fill="none" stroke="black" d="M1006.95,-437.09C1023.12,-435.23 1039.79,-433.44 1055.5,-432 1304.51,-409.13 1370.23,-416.48 1623.16,-396.09"/>
<polygon fill="black" stroke="black" points="1623.71,-399.56 1633.4,-395.26 1623.14,-392.58 1623.71,-399.56"/>
</g>
<!-- [root] provider.aws (close)&#45;&gt;[root] aws_subnet.xsrt&#45;db -->
<g id="edge55" class="edge">
<title>[root] provider.aws (close)&#45;&gt;[root] aws_subnet.xsrt&#45;db</title>
<path fill="none" stroke="black" d="M822.04,-437.13C805.88,-435.26 789.21,-433.47 773.5,-432 535.98,-409.82 472.04,-427.03 232.31,-396.15"/>
<polygon fill="black" stroke="black" points="232.61,-392.66 222.24,-394.83 231.71,-399.6 232.61,-392.66"/>
</g>
<!-- [root] provider.aws.us&#45;east&#45;1 (close) -->
<g id="node32" class="node">
<title>[root] provider.aws.us&#45;east&#45;1 (close)</title>
<ellipse fill="none" stroke="black" cx="587.5" cy="-450" rx="176.57" ry="18"/>
<text text-anchor="middle" x="587.5" y="-446.3" font-family="Times,serif" font-size="14.00">[root] provider.aws.us&#45;east&#45;1 (close)</text>
</g>
<!-- [root] provider.aws.us&#45;east&#45;1 (close)&#45;&gt;[root] data.aws_acm_certificate.wildcard&#45;cert -->
<g id="edge56" class="edge">
<title>[root] provider.aws.us&#45;east&#45;1 (close)&#45;&gt;[root] data.aws_acm_certificate.wildcard&#45;cert</title>
<path fill="none" stroke="black" d="M585.75,-431.72C584.74,-411.35 586.58,-378.02 606.5,-360 612.57,-354.51 790.42,-335.91 927.63,-322.29"/>
<polygon fill="black" stroke="black" points="928.25,-325.74 937.85,-321.27 927.56,-318.78 928.25,-325.74"/>
</g>
<!-- [root] root -->
<g id="node33" class="node">
<title>[root] root</title>
<ellipse fill="none" stroke="black" cx="914.5" cy="-522" rx="58.49" ry="18"/>
<text text-anchor="middle" x="914.5" y="-518.3" font-family="Times,serif" font-size="14.00">[root] root</text>
</g>
<!-- [root] root&#45;&gt;[root] meta.count&#45;boundary (EachMode fixup) -->
<g id="edge57" class="edge">
<title>[root] root&#45;&gt;[root] meta.count&#45;boundary (EachMode fixup)</title>
<path fill="none" stroke="black" d="M963.01,-511.92C1021.34,-501 1120.57,-482.43 1194.17,-468.66"/>
<polygon fill="black" stroke="black" points="1195.19,-472.03 1204.38,-466.75 1193.9,-465.14 1195.19,-472.03"/>
</g>
<!-- [root] root&#45;&gt;[root] provider.aws (close) -->
<g id="edge58" class="edge">
<title>[root] root&#45;&gt;[root] provider.aws (close)</title>
<path fill="none" stroke="black" d="M914.5,-503.7C914.5,-495.98 914.5,-486.71 914.5,-478.11"/>
<polygon fill="black" stroke="black" points="918,-478.1 914.5,-468.1 911,-478.1 918,-478.1"/>
</g>
<!-- [root] root&#45;&gt;[root] provider.aws.us&#45;east&#45;1 (close) -->
<g id="edge59" class="edge">
<title>[root] root&#45;&gt;[root] provider.aws.us&#45;east&#45;1 (close)</title>
<path fill="none" stroke="black" d="M868,-511.05C816.45,-500.01 732.31,-482 669.61,-468.58"/>
<polygon fill="black" stroke="black" points="670.25,-465.13 659.74,-466.46 668.78,-471.98 670.25,-465.13"/>
</g>
</g>
</svg>
